<svg xmlns="http://www.w3.org/2000/svg" viewBox="0 0 100 100" width="100" height="100">
  <circle cx="50" cy="50" r="48" fill="#fffaf0" stroke="#f59e0b" stroke-width="4"/>
  <path d="M35 42 C18 30 10 42 17 61 C21 73 30 76 37 67 Z" fill="#b97842" stroke="#744323" stroke-width="2"/>
  <path d="M65 42 C82 30 90 42 83 61 C79 73 70 76 63 67 Z" fill="#b97842" stroke="#744323" stroke-width="2"/>
  <path d="M28 43 C20 43 21 56 26 64" fill="none" stroke="#e8a7ad" stroke-width="4" stroke-linecap="round"/>
  <path d="M72 43 C80 43 79 56 74 64" fill="none" stroke="#e8a7ad" stroke-width="4" stroke-linecap="round"/>
  <circle cx="50" cy="57" r="23" fill="#c98b55"/>
  <g fill="#e6b77d">
    <circle cx="34" cy="43" r="9"/>
    <circle cx="43" cy="36" r="10"/>
    <circle cx="54" cy="35" r="10"/>
    <circle cx="65" cy="42" r="9"/>
    <circle cx="50" cy="44" r="12"/>
  </g>
  <circle cx="42" cy="56" r="3" fill="#21130a"/>
  <circle cx="58" cy="56" r="3" fill="#21130a"/>
  <path d="M50 62 l-4 4 h8 z" fill="#df8c9e"/>
  <path d="M50 66 v5 M50 70 q-5 4 -8 0 M50 70 q5 4 8 0" fill="none" stroke="#21130a" stroke-width="1.5" stroke-linecap="round"/>
</svg>
