<svg xmlns="http://www.w3.org/2000/svg" viewBox="0 0 100 100" width="100" height="100">
  <circle cx="50" cy="50" r="47" fill="#f5f1e8" stroke="#111827" stroke-width="4"/>
  <ellipse cx="37" cy="28" rx="9" ry="23" fill="#ffffff" stroke="#111827" stroke-width="3"/>
  <ellipse cx="63" cy="28" rx="9" ry="23" fill="#ffffff" stroke="#111827" stroke-width="3"/>
  <ellipse cx="37" cy="29" rx="4" ry="15" fill="#f9a8b8"/>
  <ellipse cx="63" cy="29" rx="4" ry="15" fill="#f9a8b8"/>
  <circle cx="50" cy="59" r="25" fill="#ffffff" stroke="#111827" stroke-width="3"/>
  <ellipse cx="40" cy="55" rx="8" ry="6.5" fill="#111111"/>
  <ellipse cx="60" cy="55" rx="8" ry="6.5" fill="#111111"/>
  <circle cx="40" cy="55" r="2.5" fill="#ffffff"/>
  <circle cx="60" cy="55" r="2.5" fill="#ffffff"/>
  <path d="M50 62l-4 4h8z" fill="#f472b6"/>
  <path d="M50 66v5m0 0c-3 0-5-1-6-3m6 3c3 0 5-1 6-3" fill="none" stroke="#111827" stroke-width="1.75" stroke-linecap="round"/>
  <circle cx="31" cy="65" r="3" fill="#fbcfe8" opacity=".7"/>
  <circle cx="69" cy="65" r="3" fill="#fbcfe8" opacity=".7"/>
</svg>
